/* XPM */
static char * hide_inactive_xpm[] = {
"14 12 3 1",
" 	c None",
".	c #F6F6F6 s active_color_2",
"+	c #b1b1b1 s inactive_text_color",
"..............",
"..............",
"..............",
"..............",
"..............",
"..............",
"...++++++++...",
"...++++++++...",
"..............",
"..............",
"..............",
".............."};
